<?xml version="1.0" encoding="UTF-8"?>
<svg xmlns="http://www.w3.org/2000/svg" xmlns:xlink="http://www.w3.org/1999/xlink" width="500" height="500" viewBox="0 0 2000 2000">
<path fill-rule="evenodd" fill="rgb(91.014099%, 87.5%, 72.068787%)" fill-opacity="1" d="M 198.003906 0.078125 L 1801.921875 0.078125 C 1910.820312 0.078125 1999.921875 89.179688 1999.921875 198.078125 L 1999.921875 1801.996094 C 1999.921875 1910.898438 1910.820312 2000 1801.921875 2000 L 198.003906 2000 C 89.101562 2000 0 1910.898438 0 1801.996094 L 0 198.078125 C 0 89.179688 89.101562 0.078125 198.003906 0.078125 "/>
<path fill-rule="evenodd" fill="rgb(91.014099%, 87.5%, 72.068787%)" fill-opacity="1" d="M 1908.238281 1915.15625 L 1889.179688 1915.15625 C 1888.300781 1915.15625 1887.589844 1915.871094 1887.589844 1916.746094 L 1887.589844 1935.800781 C 1887.589844 1936.679688 1888.300781 1937.394531 1889.179688 1937.394531 L 1908.238281 1937.394531 C 1909.109375 1937.394531 1909.828125 1936.679688 1909.828125 1935.800781 L 1909.828125 1916.746094 C 1909.828125 1915.871094 1909.109375 1915.15625 1908.238281 1915.15625 "/>
<path fill-rule="evenodd" fill="rgb(91.014099%, 87.5%, 72.068787%)" fill-opacity="1" d="M 1865.28125 1916.171875 L 1847.089844 1916.171875 C 1846.261719 1916.171875 1845.578125 1916.855469 1845.578125 1917.691406 L 1845.578125 1935.875 C 1845.578125 1936.710938 1846.261719 1937.394531 1847.089844 1937.394531 L 1865.28125 1937.394531 C 1866.109375 1937.394531 1866.800781 1936.710938 1866.800781 1935.875 L 1866.800781 1917.691406 C 1866.800781 1916.855469 1866.109375 1916.171875 1865.28125 1916.171875 "/>
<path fill-rule="evenodd" fill="rgb(91.014099%, 87.5%, 72.068787%)" fill-opacity="1" d="M 1822.320312 1917.1875 L 1805.011719 1917.1875 C 1804.210938 1917.1875 1803.558594 1917.839844 1803.558594 1918.636719 L 1803.558594 1935.949219 C 1803.558594 1936.742188 1804.210938 1937.394531 1805.011719 1937.394531 L 1822.320312 1937.394531 C 1823.121094 1937.394531 1823.769531 1936.742188 1823.769531 1935.949219 L 1823.769531 1918.636719 C 1823.769531 1917.839844 1823.121094 1917.1875 1822.320312 1917.1875 "/>
<path fill-rule="evenodd" fill="rgb(91.014099%, 87.5%, 72.068787%)" fill-opacity="1" d="M 1779.371094 1918.207031 L 1762.929688 1918.207031 C 1762.171875 1918.207031 1761.550781 1918.824219 1761.550781 1919.582031 L 1761.550781 1936.019531 C 1761.550781 1936.777344 1762.171875 1937.394531 1762.929688 1937.394531 L 1779.371094 1937.394531 C 1780.121094 1937.394531 1780.738281 1936.777344 1780.738281 1936.019531 L 1780.738281 1919.582031 C 1780.738281 1918.824219 1780.121094 1918.207031 1779.371094 1918.207031 "/>
<path fill-rule="evenodd" fill="rgb(91.014099%, 87.5%, 72.068787%)" fill-opacity="1" d="M 1736.410156 1919.222656 L 1720.839844 1919.222656 C 1720.128906 1919.222656 1719.539062 1919.808594 1719.539062 1920.523438 L 1719.539062 1936.09375 C 1719.539062 1936.808594 1720.128906 1937.394531 1720.839844 1937.394531 L 1736.410156 1937.394531 C 1737.128906 1937.394531 1737.710938 1936.808594 1737.710938 1936.09375 L 1737.710938 1920.523438 C 1737.710938 1919.808594 1737.128906 1919.222656 1736.410156 1919.222656 "/>
<path fill-rule="evenodd" fill="rgb(91.014099%, 87.5%, 72.068787%)" fill-opacity="1" d="M 1693.460938 1920.238281 L 1678.761719 1920.238281 C 1678.078125 1920.238281 1677.53125 1920.792969 1677.53125 1921.46875 L 1677.53125 1936.167969 C 1677.53125 1936.84375 1678.078125 1937.394531 1678.761719 1937.394531 L 1693.460938 1937.394531 C 1694.128906 1937.394531 1694.679688 1936.84375 1694.679688 1936.167969 L 1694.679688 1921.46875 C 1694.679688 1920.792969 1694.128906 1920.238281 1693.460938 1920.238281 "/>
<path fill-rule="evenodd" fill="rgb(91.014099%, 87.5%, 72.068787%)" fill-opacity="1" d="M 1650.5 1921.257812 L 1636.671875 1921.257812 C 1636.039062 1921.257812 1635.519531 1921.777344 1635.519531 1922.414062 L 1635.519531 1936.238281 C 1635.519531 1936.875 1636.039062 1937.394531 1636.671875 1937.394531 L 1650.5 1937.394531 C 1651.140625 1937.394531 1651.648438 1936.875 1651.648438 1936.238281 L 1651.648438 1922.414062 C 1651.648438 1921.777344 1651.140625 1921.257812 1650.5 1921.257812 "/>
<path fill-rule="evenodd" fill="rgb(91.014099%, 87.5%, 72.068787%)" fill-opacity="1" d="M 1607.539062 1922.273438 L 1594.589844 1922.273438 C 1593.988281 1922.273438 1593.511719 1922.761719 1593.511719 1923.355469 L 1593.511719 1936.3125 C 1593.511719 1936.90625 1593.988281 1937.394531 1594.589844 1937.394531 L 1607.539062 1937.394531 C 1608.140625 1937.394531 1608.628906 1936.90625 1608.628906 1936.3125 L 1608.628906 1923.355469 C 1608.628906 1922.761719 1608.140625 1922.273438 1607.539062 1922.273438 "/>
<path fill-rule="evenodd" fill="rgb(91.014099%, 87.5%, 72.068787%)" fill-opacity="1" d="M 1564.589844 1923.292969 L 1552.5 1923.292969 C 1551.949219 1923.292969 1551.488281 1923.746094 1551.488281 1924.300781 L 1551.488281 1936.386719 C 1551.488281 1936.941406 1551.949219 1937.394531 1552.5 1937.394531 L 1564.589844 1937.394531 C 1565.140625 1937.394531 1565.601562 1936.941406 1565.601562 1936.386719 L 1565.601562 1924.300781 C 1565.601562 1923.746094 1565.140625 1923.292969 1564.589844 1923.292969 "/>
<path fill-rule="evenodd" fill="rgb(0%, 0%, 0%)" fill-opacity="1" d="M 999.960938 1243.050781 C 950.429688 1253.523438 876.90625 1228.523438 834.328125 1202.542969 C 743.164062 1146.921875 688.855469 1049.90625 686.71875 943.390625 C 686.648438 939.851562 682.921875 665.289062 683.140625 662.730469 C 683.992188 652.769531 688.679688 647.738281 698.371094 645.691406 C 706.347656 643.988281 995.835938 608.320312 1002.238281 608.710938 C 1003.671875 608.800781 1300.539062 645.46875 1301.550781 645.691406 C 1311.238281 647.738281 1315.929688 652.769531 1316.78125 662.730469 C 1317.839844 675.148438 1313.621094 935.480469 1312.988281 951.429688 C 1307 1103.03125 1185.238281 1237.886719 1030.839844 1244.941406 C 1018.660156 1245.496094 1011.96875 1245.589844 999.960938 1243.054688 Z M 999.960938 1243.050781 C 1010.761719 1240.464844 1019.351562 1239.789062 1030.128906 1238.054688 C 1177.710938 1214.292969 1287.25 1094.609375 1286.050781 943.390625 L 1282.671875 678.238281 C 1103.460938 659.980469 1191.710938 669.011719 999.960938 649.300781 C 808.214844 669.011719 896.457031 659.980469 717.25 678.238281 L 713.871094 943.390625 C 712.769531 1082.085938 807.007812 1198.855469 940.746094 1232.164062 C 961.253906 1237.269531 980.796875 1238.460938 999.960938 1243.050781 "/>
<path fill-rule="evenodd" fill="rgb(0%, 0%, 0%)" fill-opacity="1" d="M 828.859375 1317.328125 C 801.78125 1231.785156 801.78125 1274.558594 828.855469 1189.015625 L 828.859375 1189.015625 C 855.933594 1274.558594 855.933594 1231.785156 828.859375 1317.328125 Z M 1171.058594 1189.015625 C 1198.140625 1274.558594 1198.140625 1231.785156 1171.058594 1317.328125 C 1143.988281 1231.785156 1143.988281 1274.558594 1171.058594 1189.015625 "/>
<path fill-rule="evenodd" fill="rgb(0%, 0%, 0%)" fill-opacity="1" d="M 711.65625 1024.980469 C 695.914062 1025.628906 695.023438 1025.410156 680.335938 1017.964844 C 635.027344 995 601.613281 938.800781 608.351562 887.769531 C 614 844.980469 640.546875 800.421875 680.628906 781.96875 C 691.011719 777.179688 688.59375 778.441406 700.296875 778.089844 C 692.996094 789.921875 697.542969 783.878906 688.722656 793.371094 C 662.863281 821.179688 646.316406 851.570312 646.703125 890.480469 C 647.019531 921.96875 650.191406 947.910156 667.371094 975.140625 C 682.019531 998.351562 696.695312 1005.6875 711.65625 1024.980469 "/>
<path fill-rule="evenodd" fill="rgb(0%, 0%, 0%)" fill-opacity="1" d="M 1288.261719 1024.980469 C 1304.011719 1025.628906 1304.898438 1025.410156 1319.578125 1017.964844 C 1364.890625 995 1398.308594 938.800781 1391.570312 887.769531 C 1385.921875 844.980469 1359.371094 800.421875 1319.289062 781.96875 C 1308.910156 777.179688 1311.328125 778.441406 1299.621094 778.089844 C 1306.921875 789.921875 1302.378906 783.878906 1311.199219 793.371094 C 1337.058594 821.179688 1353.601562 851.570312 1353.210938 890.480469 C 1352.898438 921.96875 1349.730469 947.910156 1332.550781 975.140625 C 1317.898438 998.351562 1303.21875 1005.6875 1288.261719 1024.980469 "/>
<path fill-rule="evenodd" fill="rgb(0%, 0%, 0%)" fill-opacity="1" d="M 1064.289062 1459.984375 C 1100.21875 1435.078125 1127.398438 1418.609375 1148.640625 1377.644531 C 1155.410156 1364.601562 1160.171875 1350.773438 1162.5 1336.253906 C 1163.609375 1329.328125 1161.738281 1318.609375 1171.53125 1319.089844 C 1176.109375 1319.316406 1405.25 1353.121094 1410.539062 1353.945312 C 1525.058594 1371.863281 1624.730469 1444.808594 1627.429688 1569.011719 C 1627.480469 1571.269531 1630.058594 1868.746094 1629.960938 1869.851562 C 1629 1879.945312 1623.878906 1884.925781 1613.859375 1885.949219 C 1610.828125 1886.257812 1005.03125 1890.15625 999.960938 1890.15625 C 994.886719 1890.15625 389.09375 1886.257812 386.058594 1885.949219 C 376.035156 1884.925781 370.914062 1879.945312 369.960938 1869.851562 C 368.957031 1859.21875 371.945312 1573.15625 372.878906 1557.851562 C 380.082031 1440.046875 480.839844 1370.929688 589.378906 1353.945312 C 595.425781 1353 826.503906 1318.035156 831.109375 1319.214844 C 837.964844 1320.964844 836.625 1331.304688 837.417969 1336.253906 C 845.144531 1384.414062 878.402344 1421.972656 917.871094 1448.171875 C 940.464844 1463.171875 913.355469 1444.550781 935.628906 1459.984375 L 935.628906 1459.988281 C 919.496094 1454.96875 910.496094 1450.308594 896.46875 1440.796875 C 856.777344 1413.890625 832.921875 1379.609375 824.035156 1333.4375 L 592.636719 1374.183594 C 491.132812 1392.707031 400.035156 1457.261719 399.625 1569.011719 L 402.019531 1853.636719 C 501.203125 1852.910156 958.457031 1849.546875 999.960938 1849.546875 C 1041.460938 1849.546875 1498.71875 1852.910156 1597.898438 1853.636719 L 1600.289062 1569.011719 C 1599.878906 1457.265625 1508.789062 1392.707031 1407.28125 1374.183594 L 1176.011719 1333.460938 L 1175.21875 1338.5625 C 1164.230469 1393.429688 1117.488281 1443.449219 1064.289062 1459.984375 "/>
<path fill-rule="evenodd" fill="rgb(0%, 0%, 0%)" fill-opacity="1" d="M 677.757812 1646.542969 C 605.242188 1462.746094 628.347656 1557.839844 608.445312 1361.257812 L 608.449219 1361.257812 C 680.964844 1545.054688 657.863281 1449.960938 677.757812 1646.542969 Z M 1322.160156 1646.542969 C 1342.058594 1449.960938 1318.960938 1545.054688 1391.46875 1361.257812 C 1371.570312 1557.839844 1394.679688 1462.746094 1322.160156 1646.542969 Z M 1330.21875 1351.402344 C 1310.019531 1549.246094 1333.28125 1453.519531 1260.460938 1638.582031 L 1260.449219 1638.582031 C 1280.660156 1440.734375 1257.398438 1536.464844 1330.21875 1351.402344 Z M 669.695312 1351.402344 C 742.519531 1536.464844 719.261719 1440.734375 739.46875 1638.582031 L 739.464844 1638.582031 C 666.644531 1453.519531 689.898438 1549.246094 669.695312 1351.402344 "/>
<path fill-rule="evenodd" fill="rgb(0%, 0%, 0%)" fill-opacity="1" d="M 1395.75 1869.851562 C 1382.378906 1749.53125 1395.011719 1874.515625 1386.660156 1754.21875 C 1382.601562 1695.625 1339.269531 1653.164062 1280.121094 1653.152344 L 999.960938 1658.886719 L 719.804688 1653.152344 C 660.652344 1653.164062 617.320312 1695.625 613.257812 1754.21875 C 604.910156 1874.558594 617.546875 1749.484375 604.171875 1869.851562 L 604.167969 1869.851562 C 598.375 1817.734375 595.882812 1806.617188 595.082031 1754.21875 C 593.972656 1681.683594 647.898438 1627.433594 719.804688 1624.011719 C 732.925781 1623.386719 986.789062 1618.273438 999.960938 1618.273438 C 1013.128906 1618.273438 1266.988281 1623.386719 1280.121094 1624.011719 C 1332.429688 1626.5 1377.308594 1655.738281 1396.519531 1705.113281 C 1414.011719 1750.074219 1400.75 1824.894531 1395.75 1869.851562 "/>
<path fill-rule="evenodd" fill="rgb(0%, 0%, 0%)" fill-opacity="1" d="M 630.679688 914.761719 C 630.761719 918.070312 629.78125 919.949219 626.496094 917.648438 C 620.640625 913.550781 608.71875 831.089844 607.441406 818.671875 C 580.5 557.328125 721.496094 361.410156 985.808594 324.621094 C 1006.890625 321.691406 1016.621094 324.558594 1037.871094 328.441406 C 1324.421875 380.621094 1440.71875 621.671875 1380.878906 890.859375 C 1380.550781 892.320312 1378.128906 908.171875 1374.640625 915.101562 L 1374.640625 915.609375 L 1374.390625 915.570312 C 1372.898438 918.308594 1371.21875 919.378906 1369.441406 917.019531 C 1369.089844 916.550781 1368.949219 915.75 1368.960938 914.71875 L 1368.898438 914.710938 L 1369.03125 913.589844 C 1369.039062 913.398438 1369.070312 913.199219 1369.089844 912.988281 C 1372.300781 883.539062 1375.5 854.96875 1376.851562 825.28125 C 1388.480469 569.351562 1261.519531 391.488281 999.917969 363.699219 C 861.082031 378.480469 738.046875 439.261719 671.414062 567.171875 C 613.117188 679.089844 617.875 794.109375 631.015625 914.710938 L 630.679688 914.761719 "/>
<path fill-rule="evenodd" fill="rgb(0%, 0%, 0%)" fill-opacity="1" d="M 771.925781 426.71875 C 762.144531 413.011719 758.839844 400.621094 755.605469 384.160156 C 734.199219 275.199219 793.964844 176.460938 895.265625 135.460938 C 974.074219 103.558594 1062.46875 108.558594 1136.441406 150.851562 C 1219.609375 198.390625 1262.859375 289.761719 1244.308594 384.160156 C 1241.078125 400.621094 1237.78125 413.011719 1227.988281 426.71875 C 1227.839844 414.140625 1227.488281 420.949219 1229.011719 408.78125 C 1234.738281 362.820312 1231.601562 317.070312 1212.238281 274.328125 C 1173.851562 189.640625 1088.460938 154.941406 999.960938 154.941406 C 870.011719 154.941406 771.273438 228.980469 768.222656 364.878906 C 767.71875 387.398438 772.175781 406.300781 771.925781 426.71875 "/>
<path fill-rule="evenodd" fill="rgb(0%, 0%, 0%)" fill-opacity="1" d="M 851.519531 727.308594 C 866.101562 723.199219 869.097656 722.789062 884.414062 725.988281 C 965.070312 742.839844 996.089844 843.339844 945.3125 908.96875 C 893.847656 975.480469 795.535156 970.078125 751.042969 899.410156 C 709.671875 833.691406 742.378906 741.921875 818.625 725.988281 C 833.945312 722.789062 836.941406 723.199219 851.519531 727.308594 Z M 1148.398438 727.308594 C 1117.710938 739.789062 1097.609375 742.421875 1076.191406 772.121094 C 1028.519531 838.230469 1080.550781 928.5 1165.488281 914.609375 C 1254.429688 900.058594 1269.230469 769.378906 1168.390625 734.480469 C 1146.890625 727.039062 1170.890625 736.449219 1148.398438 727.308594 Z M 1148.398438 727.308594 C 1162.980469 723.199219 1165.980469 722.789062 1181.289062 725.988281 C 1257.539062 741.921875 1290.25 833.691406 1248.878906 899.410156 C 1204.378906 970.078125 1106.070312 975.480469 1054.609375 908.96875 C 1003.828125 843.339844 1034.851562 742.839844 1115.511719 725.988281 C 1130.820312 722.789062 1133.820312 723.199219 1148.398438 727.308594 Z M 851.519531 727.308594 C 829.03125 736.449219 853.03125 727.039062 831.527344 734.480469 C 730.6875 769.378906 745.484375 900.058594 834.429688 914.609375 C 919.367188 928.5 971.402344 838.21875 923.730469 772.121094 C 902.308594 742.421875 882.214844 739.789062 851.519531 727.308594 "/>
<path fill-rule="evenodd" fill="rgb(0%, 0%, 0%)" fill-opacity="1" d="M 1050.519531 867.828125 C 1021.28125 884.441406 1009.28125 895.761719 974.679688 882.191406 L 949.398438 867.839844 L 949.398438 867.828125 L 974.679688 853.46875 C 1009.28125 839.898438 1021.28125 851.21875 1050.519531 867.828125 Z M 949.398438 795.441406 C 978.640625 778.839844 990.636719 767.511719 1025.238281 781.078125 L 1050.519531 795.441406 L 1050.519531 795.449219 L 1025.238281 809.800781 C 990.636719 823.371094 978.640625 812.050781 949.398438 795.441406 "/>
<path fill-rule="evenodd" fill="rgb(0%, 0%, 0%)" fill-opacity="1" d="M 1248.980469 803.839844 L 1279.558594 791.011719 L 1299.628906 817.398438 L 1299.621094 817.410156 L 1269.050781 830.238281 Z M 750.941406 803.839844 L 730.875 830.238281 L 700.296875 817.410156 L 700.292969 817.398438 L 720.363281 791.011719 Z M 700.296875 892.351562 L 723.664062 865.058594 L 757.546875 877.011719 L 734.175781 904.289062 Z M 1299.621094 892.351562 L 1265.738281 904.289062 L 1242.371094 877.011719 L 1276.25 865.058594 L 1299.621094 892.351562 "/>
<path fill-rule="evenodd" fill="rgb(0%, 0%, 0%)" fill-opacity="1" d="M 1060.03125 1042.027344 C 1060.078125 1033.199219 1060 1030.703125 1067.308594 1023.417969 C 1077.398438 1013.351562 1088.03125 1012.664062 1101.148438 1014.511719 C 1158.191406 1035.078125 1119.929688 1100.929688 1090.398438 1127.714844 L 1082.011719 1134.726562 C 1028.539062 1172.753906 970.269531 1173.675781 914.6875 1139.246094 C 891.164062 1120.039062 871.632812 1096.195312 864.070312 1066.054688 C 858.445312 1043.625 866.59375 1021.175781 887.472656 1010.234375 L 896.289062 1006.691406 C 924.65625 1001.519531 942.515625 1010.855469 953.195312 1037.8125 L 953.1875 1037.792969 C 957.71875 1050.847656 959.351562 1052.933594 969.375 1062.414062 C 991.234375 1077.542969 1009.820312 1078.015625 1033.578125 1066.675781 C 1047.699219 1057.246094 1048.828125 1054.074219 1060.03125 1042.027344 Z M 1060.03125 1042.027344 C 1059.398438 1052.867188 1060.660156 1052.253906 1055.21875 1061.796875 C 1027.789062 1109.941406 948.871094 1103.925781 926.597656 1046.265625 C 919.851562 1028.796875 891.949219 1035.113281 897.917969 1055.3125 L 901.113281 1063.074219 C 915.5 1094.308594 949.210938 1119.628906 982.734375 1126.332031 C 1037.761719 1137.335938 1086.480469 1107.847656 1108.460938 1057.359375 C 1111.53125 1047.222656 1109.648438 1037.964844 1100.53125 1031.59375 C 1084.148438 1020.148438 1071.398438 1031.878906 1060.03125 1042.027344 "/>
<path fill-rule="evenodd" fill="rgb(0%, 0%, 0%)" fill-opacity="1" d="M 999.960938 1355.3125 C 1009.558594 1351.664062 1011.289062 1351.226562 1021.820312 1355.117188 C 1071.148438 1373.355469 1084.441406 1454.660156 1078.160156 1500.460938 C 1072.628906 1540.871094 1047.628906 1595.960938 999.960938 1595.960938 C 948.074219 1595.960938 923.722656 1532.304688 920.542969 1488.875 C 917.378906 1445.652344 932.054688 1372.140625 978.101562 1355.117188 C 988.628906 1351.226562 990.363281 1351.664062 999.960938 1355.3125 Z M 999.960938 1355.3125 C 978.234375 1369.214844 1008.019531 1350.40625 988.53125 1361.988281 C 949.203125 1385.367188 945.726562 1455.128906 955.15625 1494.351562 C 960.816406 1517.890625 984.914062 1572.410156 1016.929688 1546.285156 C 1052.660156 1517.136719 1055.699219 1440.542969 1040.101562 1399.804688 C 1029.730469 1372.726562 1021.96875 1369.394531 999.960938 1355.3125 "/>
</svg>
